<?xml version="1.0" encoding="utf-8"?>
<!-- Generator: Adobe Illustrator 28.2.0, SVG Export Plug-In . SVG Version: 6.00 Build 0)  -->
<svg version="1.1" id="Calque_4" xmlns="http://www.w3.org/2000/svg" xmlns:xlink="http://www.w3.org/1999/xlink" x="0px" y="0px"
	 viewBox="0 0 595.3 842" style="enable-background:new 0 0 595.3 842;" xml:space="preserve">
<style type="text/css">
	.st0{display:none;fill:#FFFFFF;}
</style>
<g>
	<path class="st0" d="M15.3,32.9c198.4,0,396.9,0,595.3,0c0,280.7,0,561.3,0,842c-198.4,0-396.9,0-595.3,0
		C15.3,594.2,15.3,313.6,15.3,32.9z M279.3,410.1c4.4,0.5,8.4,0.6,12.3,1.4c11.5,2.4,22.8,5.4,33.9,8.9c8,2.5,15.2,6.5,21.7,11.8
		c11.8,9.7,17.1,22.7,18.7,37.6c1,9.6,0.2,19.2-1.4,28.7c-2.7,16-7.9,31.2-15,45.7c-8,16.2-18,30.9-30.8,43.7
		c-8.5,8.5-18.2,15.6-28.3,22.1c-3.9,2.5-8.1,4.6-12.7,5.6c-0.8,0.2-1.6,0.8-2.2,1.4c-0.7,0.6-1.2,1.3-1.8,2
		c1.3,1.1,2.7,1.6,4.5,0.8c0.6-0.3,1.3-0.1,2-0.2c1.9-0.2,3.9-0.3,5.7-0.7c5.4-1.4,10.9-2.7,16.2-4.5c25.5-8.7,49.4-20.5,70.7-37.2
		c8.3-6.5,16.8-12.8,24.2-20.4c21.1-21.3,36.9-46,47.5-74c6-15.8,8.8-32.1,7.3-49c-0.7-7.7-2.3-15.3-5.2-22.6
		c-5.1-13-12.8-24.3-22.3-34.4c-12.3-12.9-27.3-21.7-43.7-28.2c-5.5-2.2-11.1-3.8-16.8-5.4c-10.1-2.9-20.5-4.8-30.9-6.6
		c-8.6-1.5-17.2-2.7-25.9-3.2c-7.9-0.5-15.9-0.6-23.8-0.9c-0.6,0-1.2-0.1-1.8-0.1c0.1-0.7,0.1-1.1,0.3-1.6c2.8-12,5.4-24,8.3-36
		c1.6-6.4,3.6-12.8,5.4-19.1c0.3-0.9-0.2-1.4-0.8-1.9c-0.7-0.5-1.4-0.8-2-0.2c-0.6,0.5-1.1,1.2-1.6,1.9c-0.7,0.8-1.3,1.7-2,2.6
		c-0.8,0.9-1.6,1.7-2.4,2.5c-7.6,8.4-15.7,16.3-24.4,23.5c-21.4,18-44.7,33-70.1,44.8c-11.5,5.4-23.3,10.4-35.3,14.5
		c-6.7,2.3-13.5,3.8-20.7,2.9c-1.4-0.2-2.7,0.6-3.2,1.8c-0.5,1.2,0,2.7,1.4,3.5c1.1,0.6,2.3,1.1,3.6,1.5c4.9,1.4,9.9,2.7,14.8,4.1
		c15.2,4.4,30.2,9.5,44.3,16.7c33.1,17,62.2,39.1,86.5,67.4c3,3.5,6.1,6.9,9.2,10.2c0.5,0.6,1.2,1.1,1.9,1.5c1,0.6,2.1,0.5,3.1-0.3
		c0.9-0.8,1.3-1.8,0.9-2.9c-0.2-0.7-0.5-1.4-0.8-2.1c-1.7-4.4-3.7-8.7-5.1-13.2c-3.2-9.7-6.1-19.5-9.1-29.2
		C282.3,420.4,280.9,415.5,279.3,410.1z"/>
	<path d="M247.5,369.5c1.6,5.3,3,10.3,4.5,15.2c3,9.7,5.9,19.5,9.1,29.2c1.5,4.5,3.4,8.8,5.1,13.2c0.3,0.7,0.5,1.4,0.8,2.1
		c0.4,1.2,0,2.2-0.9,2.9c-0.9,0.8-2,0.9-3.1,0.3c-0.7-0.4-1.4-0.9-1.9-1.5c-3.1-3.4-6.2-6.8-9.2-10.2
		c-24.3-28.3-53.4-50.4-86.5-67.4c-14.1-7.2-29.1-12.4-44.3-16.7c-4.9-1.4-9.9-2.7-14.8-4.1c-1.2-0.4-2.5-0.8-3.6-1.5
		c-1.4-0.8-1.9-2.3-1.4-3.5c0.4-1.1,1.7-1.9,3.2-1.8c7.2,0.9,14.1-0.7,20.7-2.9c12.1-4.1,23.8-9.1,35.3-14.5
		c25.4-11.8,48.7-26.8,70.1-44.8c8.7-7.3,16.8-15.1,24.4-23.5c0.8-0.9,1.6-1.7,2.4-2.5c0.7-0.8,1.3-1.7,2-2.6c0.5-0.6,1-1.3,1.6-1.9
		c0.7-0.6,1.3-0.4,2,0.2c0.6,0.5,1.1,0.9,0.8,1.9c-1.9,6.4-3.9,12.7-5.4,19.1c-2.9,12-5.6,24-8.3,36c-0.1,0.5-0.2,0.9-0.3,1.6
		c0.7,0,1.3,0.1,1.8,0.1c7.9,0.3,15.9,0.4,23.8,0.9c8.7,0.5,17.3,1.7,25.9,3.2c10.4,1.8,20.8,3.6,30.9,6.6
		c5.6,1.6,11.3,3.2,16.8,5.4c16.4,6.5,31.4,15.3,43.7,28.2c9.6,10.1,17.2,21.5,22.3,34.4c2.9,7.3,4.5,14.8,5.2,22.6
		c1.5,16.9-1.4,33.2-7.3,49c-10.6,28-26.4,52.7-47.5,74c-7.4,7.5-15.9,13.8-24.2,20.4c-21.3,16.7-45.2,28.5-70.7,37.2
		c-5.3,1.8-10.8,3.1-16.2,4.5c-1.8,0.5-3.8,0.5-5.7,0.7c-0.7,0.1-1.4-0.1-2,0.2c-1.7,0.8-3.1,0.3-4.5-0.8c0.6-0.7,1.1-1.4,1.8-2
		c0.7-0.6,1.4-1.2,2.2-1.4c4.6-1,8.8-3.1,12.7-5.6c10.2-6.4,19.8-13.5,28.3-22.1c12.8-12.8,22.8-27.5,30.8-43.7
		c7.2-14.5,12.3-29.7,15-45.7c1.6-9.5,2.4-19,1.4-28.7c-1.6-14.8-6.9-27.9-18.7-37.6c-6.5-5.3-13.7-9.3-21.7-11.8
		c-11.2-3.5-22.5-6.5-33.9-8.9C255.9,370.2,251.8,370,247.5,369.5z M268.7,569.1c0.1,0.1,0.2,0.2,0.2,0.3c0.7-0.2,1.4-0.4,2.1-0.7
		c24.3-8.9,47-20.6,67.4-36.6c8.5-6.7,17-13.2,24.4-21.1c16.8-17.7,29.9-37.7,39.7-60c6-13.6,10.5-27.6,11.6-42.6
		c0.8-11.4-0.4-22.5-4.2-33.2c-5.9-16.5-16-30.2-29.1-41.7c-7-6.1-15-10.8-23.2-15.1c-10.7-5.6-22.3-9-34-11.9
		c-9-2.3-18.1-3.7-27.2-5.1c-10-1.5-20.1-2.4-30.3-2.8c-5.7-0.2-11.5-0.5-17.2-0.7c-0.6,0-1.2,0.2-1.7,0.5c-2,1.4-4.4-0.1-4.5-2.3
		c0-1.2,0.1-2.5,0.4-3.7c3-12.3,6-24.6,9-36.9c0.7-3,1.6-5.9,2.4-8.9c-37.5,39.7-83.2,66-134.5,83.6c0.9,0.3,1.8,0.6,2.7,0.9
		c8.7,3,17.5,5.6,26,9c32.5,13.1,61.3,32.2,87,55.8c6.5,6,12.5,12.7,18.7,19.1c0.5,0.5,0.9,1,1.4,1.4c0.1-0.5,0.1-0.8,0-1
		c-2.7-9.1-5.5-18.2-8-27.4c-1.7-6.4-3.1-12.9-4.5-19.4c-0.4-1.9-0.6-3.9,0.4-5.7c0.8,0.1,1.5,0.3,2,0.1c1.4-0.6,2.8-0.8,4.2-0.7
		c3.6,0.3,7.3,0.5,10.8,1.1c9.6,1.8,19,4.5,28.5,7.1c8.4,2.3,16.3,5.5,23.7,10.2c9.2,6,16.6,13.6,21.4,23.6
		c4.1,8.6,6.2,17.8,6.7,27.4c0.6,10.3-0.5,20.4-2.5,30.4c-6.4,30.8-20.3,58-40.8,81.8c-7.9,9.2-17.4,16.7-27.3,23.5
		C269.9,568.3,269.3,568.7,268.7,569.1z"/>
	<path class="st0" d="M300.5,609.7c0.6-0.4,1.2-0.9,1.8-1.3c10-6.9,19.4-14.3,27.3-23.5c20.5-23.8,34.4-51,40.8-81.8
		c2.1-10,3.1-20.2,2.5-30.4c-0.5-9.5-2.6-18.7-6.7-27.4c-4.8-10-12.1-17.6-21.4-23.6c-7.3-4.7-15.3-7.9-23.7-10.2
		c-9.4-2.6-18.8-5.4-28.5-7.1c-3.6-0.7-7.2-0.8-10.8-1.1c-1.4-0.1-2.8,0.1-4.2,0.7c-0.5,0.2-1.2,0-2-0.1c-1,1.8-0.8,3.8-0.4,5.7
		c1.4,6.5,2.8,13,4.5,19.4c2.5,9.2,5.3,18.3,8,27.4c0.1,0.3,0.1,0.5,0,1c-0.5-0.5-0.9-1-1.4-1.4c-6.2-6.4-12.2-13-18.7-19.1
		c-25.8-23.7-54.5-42.8-87-55.8c-8.5-3.4-17.3-6-26-9c-0.9-0.3-1.8-0.6-2.7-0.9c51.3-17.6,97-43.9,134.5-83.6
		c-0.8,3-1.7,5.9-2.4,8.9c-3,12.3-6.1,24.6-9,36.9c-0.3,1.2-0.4,2.4-0.4,3.7c0,2.2,2.5,3.7,4.5,2.3c0.5-0.3,1.1-0.5,1.7-0.5
		c5.7,0.2,11.5,0.5,17.2,0.7c10.1,0.3,20.2,1.2,30.3,2.8c9.1,1.4,18.3,2.8,27.2,5.1c11.7,3,23.3,6.3,34,11.9
		c8.2,4.3,16.2,9,23.2,15.1c13.1,11.5,23.2,25.2,29.1,41.7c3.8,10.7,5,21.8,4.2,33.2c-1.1,15-5.6,28.9-11.6,42.6
		c-9.8,22.3-23,42.4-39.7,60c-7.4,7.8-16,14.4-24.4,21.1c-20.4,16.1-43.1,27.7-67.4,36.6c-0.7,0.3-1.4,0.5-2.1,0.7
		C300.6,609.9,300.6,609.8,300.5,609.7z"/>
</g>
</svg>
