<?xml version="1.0" encoding="UTF-8"?>
<svg id="Calque_1" data-name="Calque 1" xmlns="http://www.w3.org/2000/svg" viewBox="0 0 65.53 54.85">
  <defs>
    <style>
      .cls-1, .cls-2 {
        stroke-width: 0px;
      }

      .cls-2 {
        fill: #fff;
      }
    </style>
  </defs>
  <path class="cls-1" d="M21.95,29.82c-2.65-.23-2.9-.46-2.88-2.54.02-1.75.4-2.06,2.87-2.22-.23-1.07.01-2.19-.79-3.15-2.13-2.55-2.97-5.62-3.1-8.84-.11-2.58.97-4.85,2.61-6.83C24.26,1.89,28.86-.2,34.54.01c4.55.16,8.27,1.9,11.12,5.48,2.05,2.58,2.3,5.58,2.32,8.71.02,3.51-1.25,6.4-3.56,8.95-.31.34-.41.86-.62,1.33,2.47.56,3.01,1.04,3.02,2.54,0,1.68-.59,2.19-3.38,2.85.17,2.12.06,4.34.61,6.38.48,1.79,2.13,2.88,4.03,3.14,1.95.26,3.93.31,5.89.47,2.4.2,4.86.13,7.18.67,4.15.97,4.57,3.17,4.33,6.69-.05.76-.29,1.5-.37,2.26-.18,1.83-1.3,3.15-2.37,4.48-.56.69-1.33.94-2.25.87-1.64-.12-3.28-.16-4.92-.23-2.01-.08-4.02-.22-6.03-.21-3.59.02-7.18.2-10.76.19-7.48-.03-14.95-.15-22.43-.2-4.24-.03-8.48-.03-12.73.02-1.2,0-1.84-.48-2.13-1.59-.45-1.76-1.04-3.49-1.37-5.27-.36-1.92.08-3.87,1.51-5.15.98-.88,2.49-1.36,3.84-1.6,3.59-.65,7.21-1.08,10.82-1.58,1.77-.25,3.11-.93,3.87-2.74.89-2.13,1.79-4.22,1.81-6.65h-.02ZM23.7,24.92c.92,5.11.04,9.77-2.57,14.04-.52.85-1.6,1.74-2.53,1.89-4.17.7-8.37,1.19-12.57,1.64-1.93.2-3.4,1.23-3.91,3.1-.48,1.78,0,3.45.39,5.17.26,1.18.94,1.32,1.91,1.21.8-.09,1.6-.22,2.4-.19,2.96.11,5.91.32,8.86.41,2.26.07,4.52-.02,6.78.03,5.86.12,11.72.31,17.57.41,1.97.03,3.95-.2,5.92-.18,4.84.03,9.67.15,14.51.17.44,0,1.14-.37,1.26-.72.68-1.91,1.38-3.84,1.75-5.82.32-1.76-.66-2.97-2.43-3.31-1.72-.33-3.46-.51-5.21-.67-2.72-.26-5.46-.34-8.17-.69-4.69-.6-6.06-2.87-6.13-6.78-.05-2.77,0-5.55,0-8.32v-1.3c-.97.08-1.65,1.13-2.86.31.72-.68,1.31-1.37,2.03-1.9,3.96-2.91,5.57-6.75,5.05-11.64-.35-3.3-1.93-5.73-4.58-7.49C35.04.23,27.56,1.95,23.08,6.74c-1.66,1.78-3.03,3.82-2.87,6.34.21,3.4,1.11,6.64,3.53,9.25.62.67,1.25,1.35,1.78,2.1.22.31.18.79.26,1.19-.41-.03-.83,0-1.22-.11-.26-.07-.48-.31-.86-.57v-.02ZM43.78,27.96c.72,0,1.45-.13,1.38-.99-.05-.67-.65-.89-1.38-.63v1.62h0ZM21.89,26.47c-.87.08-1.56.33-1.21,1.24.11.27.9.28,1.57.46-.17-.79-.26-1.21-.36-1.7h0Z"/>
  <path class="cls-2" d="M23.7,24.92c.37.26.59.5.86.57.39.1.81.08,1.22.11-.08-.4-.05-.89-.26-1.19-.53-.74-1.15-1.42-1.78-2.1-2.42-2.61-3.31-5.84-3.53-9.25-.16-2.52,1.21-4.56,2.87-6.34C27.55,1.93,35.04.21,41.17,4.27c2.66,1.76,4.24,4.19,4.58,7.49.52,4.89-1.09,8.73-5.05,11.64-.71.52-1.3,1.21-2.03,1.9,1.2.83,1.89-.22,2.86-.31v1.3c0,2.77-.05,5.55,0,8.32.07,3.91,1.44,6.18,6.13,6.78,2.71.35,5.45.43,8.17.69,1.74.16,3.49.34,5.21.67,1.77.34,2.76,1.55,2.43,3.31-.36,1.98-1.07,3.91-1.75,5.82-.13.36-.83.73-1.26.72-4.84-.02-9.67-.14-14.51-.17-1.97,0-3.95.22-5.92.18-5.86-.1-11.72-.29-17.57-.41-2.26-.05-4.52.04-6.78-.03-2.96-.09-5.91-.3-8.86-.41-.8-.03-1.6.1-2.4.19-.98.11-1.65-.03-1.91-1.21-.38-1.72-.87-3.4-.39-5.17.5-1.87,1.97-2.89,3.91-3.1,4.2-.45,8.41-.94,12.57-1.64.94-.16,2.01-1.04,2.53-1.89,2.61-4.27,3.49-8.92,2.57-14.04v.02ZM32.37,19.61c3.02-.02,5.32-2.11,5.34-4.84.02-2.57-2.1-4.63-4.75-4.61-2.27.02-4.62,2.64-4.64,5.18-.02,2.45,1.72,4.28,4.05,4.27ZM33.88,43.83c2.83-.21,5.54-.88,8.13-2.03.17-.07.37-.16.45-.3.13-.22.28-.54.2-.73-.09-.21-.42-.41-.66-.44-.27-.03-.57.11-.83.24-2.45,1.14-5.07,1.55-7.71,1.96-.43.07-.8.53-1.2.81.39.16.78.33,1.17.47.13.05.29,0,.44,0v.02ZM37.53,26.57c-.51-.07-.73-.16-.93-.12-2.41.56-4.83.55-7.28.24-.29-.04-.63.34-.95.52.23.33.39.88.69.97,2.6.79,5.18.67,7.66-.45.32-.15.47-.67.8-1.16h0ZM22.06,40.83c-.07.15-.15.3-.22.45.36.37.65.93,1.09,1.09,1.81.63,3.65,1.17,5.5,1.66.55.15,1.27.12,1.37-.68.11-.82-.62-.88-1.17-1.02-1.68-.44-3.37-.86-5.07-1.26-.49-.12-1-.16-1.5-.24Z"/>
  <path class="cls-2" d="M43.78,27.96v-1.62c.73-.25,1.33-.04,1.38.63.07.85-.66.98-1.38.99h0Z"/>
  <path class="cls-2" d="M21.89,26.47c.1.49.19.91.36,1.7-.67-.18-1.47-.19-1.57-.46-.35-.91.35-1.16,1.21-1.24h0Z"/>
  <path class="cls-1" d="M32.37,19.61c-2.33.02-4.07-1.82-4.05-4.27.02-2.54,2.37-5.16,4.64-5.18,2.64-.02,4.76,2.04,4.75,4.61-.02,2.74-2.32,4.82-5.34,4.84ZM32.36,17.21c1.63,0,2.96-1.1,2.99-2.46.02-1.13-1.17-2.18-2.46-2.17-1.24,0-2.35,1.26-2.37,2.68-.02,1.21.68,1.95,1.84,1.95h0Z"/>
  <path class="cls-1" d="M33.88,43.83c-.15,0-.31.04-.44,0-.4-.14-.78-.31-1.17-.47.4-.28.77-.74,1.2-.81,2.63-.41,5.26-.83,7.71-1.96.26-.12.56-.26.83-.24.24.03.57.23.66.44.08.18-.08.51-.2.73-.08.14-.29.22-.45.3-2.59,1.15-5.3,1.82-8.13,2.03v-.02Z"/>
  <path class="cls-1" d="M37.53,26.57c-.33.49-.48,1.01-.8,1.16-2.48,1.12-5.07,1.24-7.66.45-.3-.09-.47-.63-.69-.97.32-.18.66-.56.95-.52,2.44.31,4.87.31,7.28-.24.19-.04.42.05.93.12h0Z"/>
  <path class="cls-1" d="M22.06,40.83c.5.08,1.01.12,1.5.24,1.69.4,3.38.82,5.07,1.26.54.14,1.27.21,1.17,1.02-.1.8-.83.83-1.37.68-1.85-.49-3.69-1.03-5.5-1.66-.43-.15-.73-.71-1.09-1.09.07-.15.15-.3.22-.45Z"/>
</svg>