<?xml version="1.0" encoding="UTF-8"?>
<svg id="Calque_1" data-name="Calque 1" xmlns="http://www.w3.org/2000/svg" viewBox="0 0 79.88 90.31">
  <defs>
    <style>
      .cls-1 {
        stroke-width: 0px;
      }
    </style>
  </defs>
  <path class="cls-1" d="M28.88,48.09c-1.51-1.61-2.85-3.07-4.22-4.5-4.89-5.09-9.84-10.11-14.65-15.27-2.29-2.45-4.33-5.12-5.46-8.38-.23-.67-.88-1.2-1.32-1.81-.89-1.21-1.89-2.37-2.64-3.66C-.56,12.47,0,10.78,2.02,9.69c1.13-.61,2.27-1.2,3.42-1.78,1.18-.6,2.31-.34,3.28.39,1.03.78,2.01,1.66,2.91,2.58,8.19,8.38,16.35,16.78,24.52,25.18.38.39.78.74,1.22,1.14.26-.23.49-.38.66-.58,9.1-10.7,18.19-21.41,27.28-32.11.71-.84,1.37-1.71,2.07-2.55,2.07-2.47,3.65-2.59,6.11-.39.46-.12.97-.29,1.49-.4,1.53-.32,2.88.03,3.9,1.24,1.06,1.27,1.33,2.77.56,4.22-.63,1.19-1.51,2.27-2.38,3.33-3.95,4.82-8.04,9.54-11.89,14.43-5.55,7.05-10.94,14.23-16.4,21.36-.45.59-.86,1.21-1.34,1.89.45.51.84.97,1.27,1.4,8.74,8.89,17.48,17.79,26.78,26.12.76.68,1.52,1.4,2.15,2.2,1.82,2.36,1.11,4.98-1.58,6.24-.53.25-1.04.62-1.45,1.03-1.59,1.62-3.28,1.86-5.15.59-.68-.46-1.3-1.01-1.9-1.56-8.44-7.72-16.88-15.45-25.32-23.18-.8-.73-1.59-1.49-2.48-2.32-.44.5-.83.87-1.14,1.29-5.35,7.29-10.71,14.57-16.04,21.87-1.94,2.66-3.98,5.2-6.48,7.39-2.68,2.35-5.19,2.12-7.24-.8-.26-.37-.64-.68-1.02-.92-2.59-1.57-3.31-3.98-1.69-6.42.87-1.3,1.5-2.44,1.15-4.13-.27-1.32.71-2.41,1.55-3.44,6.56-8.08,13.1-16.18,19.64-24.28.17-.21.29-.45.4-.63Z"/>
</svg>