<?xml version="1.0" encoding="UTF-8"?>
<svg id="Calque_1" data-name="Calque 1" xmlns="http://www.w3.org/2000/svg" viewBox="0 0 43.38 49.15">
  <defs>
    <style>
      .cls-1 {
        stroke-width: 0px;
      }
    </style>
  </defs>
  <path class="cls-1" d="M.08,45.27c.19-4.31.43-8.61.55-12.92.17-6.5.34-13.01.33-19.51C.96,9.15.62,5.46.42,1.78.35.56,1.1-.22,2.27.05c.65.15,1.27.51,1.85.85,12.47,7.3,24.93,14.61,37.39,21.93,2.43,1.42,2.51,2.04.11,3.47-4.65,2.77-9.36,5.42-14.07,8.07-6.92,3.89-13.88,7.72-20.81,11.6-1.49.83-2.91,1.79-4.34,2.72-1.28.84-2.09.51-2.23-.96-.08-.82-.12-1.64-.17-2.46h.08Z"/>
</svg>