<?xml version="1.0" encoding="UTF-8"?>
<svg id="Calque_1" data-name="Calque 1" xmlns="http://www.w3.org/2000/svg" viewBox="0 0 43.5 50.07">
  <defs>
    <style>
      .cls-1 {
        stroke-width: 0px;
      }
    </style>
  </defs>
  <path class="cls-1" d="M42.78.2c.24,3.78.65,7.52.69,11.27.09,8.5-.02,17-.03,25.5,0,3.14.08,6.29.06,9.43,0,.86-.09,1.79-.44,2.56-.55,1.2-1.14,1.38-2.33.77-1.28-.65-2.47-1.47-3.68-2.24-1.96-1.25-3.87-2.59-5.87-3.77-6.3-3.75-12.61-7.46-18.94-11.15-3.43-2-6.9-3.93-10.35-5.9-.3-.17-.59-.35-.87-.55-1.36-1-1.38-1.98.07-2.87,2.86-1.75,5.76-3.43,8.68-5.08,5.3-3,10.66-5.92,15.94-8.96,4.81-2.76,9.55-5.64,14.34-8.46.75-.44,1.47-1.07,2.73-.55h0Z"/>
</svg>