<?xml version="1.0" encoding="UTF-8"?>
<svg id="Calque_1" data-name="Calque 1" xmlns="http://www.w3.org/2000/svg" viewBox="0 0 65.41 115.19">
  <defs>
    <style>
      .cls-1 {
        stroke-width: 0px;
      }
    </style>
  </defs>
  <path class="cls-1" d="M30.13,61.46c-.97,1.91-1.74,3.89-2.89,5.61-2.35,3.52-6.82,5.21-10.42,4.17-1.61-.47-3.05-1.3-4-2.67-2.25-3.25-4.45-6.53-5.08-10.57-.8-5.08.11-9.66,3.75-13.49.12-.12.2-.27.38-.51-1.11-.36-2.13-.7-3.15-1.02C.73,40.42-2.52,31.39,2.16,24.44c1.22-1.81,2.75-3.49,4.44-4.87,2.69-2.2,5.76-2.44,8.81-.62,1.51.9,2.92,1.99,4.39,3-.3-1.5-.67-3.01-.88-4.53-.8-5.77.75-10.86,4.7-15.13,3.04-3.29,7.26-2.98,9.97.62,1.59,2.11,2.34,4.57,2.65,7.15.44,3.66.51,7.3-.77,10.84-.39,1.08-.93,2.11-1.4,3.15,1.48.63,2.99,1.27,4.62,1.95,1.24-2.92,3.31-5.36,5.73-7.5,2.76-2.44,5.74-4.57,9.41-5.43,5.66-1.31,11,2.78,11.51,8.56.69,7.84-3.72,13.45-8.27,15.3-2.43.99-5.01,1.66-7.56,2.31-1.91.48-3.88.37-5.86-.1-.33,1.1-.66,2.23-1.02,3.45,2.41-.07,4.67.54,6.82,1.46,7.19,3.07,11.42,8.63,13.03,16.14.98,4.57-2.65,9.08-7.27,9.78-5.72.86-10.56-.93-14.92-4.47-.93-.75-1.82-1.55-2.78-2.27-2.1-1.56-3.94-3.32-4.87-5.96-.4,1.64,1.52,23.64,2.54,29.49.25-.35.45-.63.65-.91,2.33-3.46,5.35-6.19,8.83-8.43,1.97-1.26,4.13-1.9,6.49-1.83,1.51.04,2.46.56,2.56,2.08.17,2.44.18,4.92-.1,7.34-.4,3.51-2.02,6.62-3.89,9.59-2.25,3.58-5.6,5.57-9.57,6.66-.97.27-1.96.46-3.02.71.29,2.41.59,4.84.86,7.28.15,1.4.25,2.81.32,4.22.04.75-.1,1.54-.99,1.7-.97.18-1.56-.49-1.71-1.31-.33-1.85-.55-3.72-.75-5.58-.41-3.7-.77-7.41-1.19-11.11-.39-3.48-.83-6.96-1.21-10.45-.38-3.45-.72-6.9-1.04-10.36-.33-3.64-.62-7.28-.93-10.92-.11-1.35-.23-2.71-.34-3.99h-.02ZM33.87,50.61c.22.77.45,1.49.62,2.22.59,2.57,1.29,5.07,3.47,6.83,1.66,1.34,3.29,2.73,4.98,4.05,3.48,2.72,7.33,4.12,11.84,3.43,3.19-.49,5.74-3.75,4.92-6.85-2.22-8.39-8-13.9-16.46-15.33-.69-.12-1.65-.11-2.14.28-.9.72-1.54,1.77-2.34,2.74,2.13,1.92,4.01,4,4.09,7.23-2.72-1.33-4.19-3.86-6.33-5.75-.88.39-1.8.79-2.66,1.16h.01ZM30.18,26.54c-.57.03-1.06-.03-1.5.09-1.44.4-3.02.61-4.25,1.37-1.53.96-2.51,2.57-3.13,4.33-1.39,3.95-1.14,7.85.61,11.6,1.54,3.3,4.98,5.05,8.59,4.67,4.94-.52,8.98-4.02,10.19-8.92.86-3.45.74-6.71-1.85-9.55-2.38-2.6-5.4-3.47-8.66-3.58h0ZM43.86,36.34c.9.11,1.76.25,2.62.31,2.67.18,5.11-.84,7.62-1.52,6.24-1.67,9.64-8.16,8.59-14.13-.62-3.52-4.13-6.04-7.65-5.55-2.27.32-4.15,1.45-5.99,2.66-3.41,2.25-6.18,5.13-8.22,8.68-.18.32-.33.89-.17,1.14.49.78,1.14,1.46,1.74,2.2,1.82-1.23,3.58-2.44,5.91-2.68-.94,2.1-2.46,3.47-4.09,4.76-.3.24-.64.65-.64.99,0,1,.18,2,.29,3.12v.02ZM18.68,44.07c-4.93,1.02-8.19,5.95-7.9,11.49.22,4.31,2.32,7.71,4.63,11.04,1.21,1.75,3.44,2.22,5.47,1.54,2.24-.74,3.87-2.18,5.03-4.23,2.23-3.95,2.36-8.31,2.57-12.5-1.52-.43-2.96-.83-4.44-1.24-.77,2.37-1.8,4.54-4.17,5.94-.03-.37-.05-.57-.06-.78-.14-2.26.72-4.24,1.65-6.22.14-.29.16-.79,0-1.03-.86-1.32-1.8-2.6-2.78-4.01ZM20.79,28.45c-.98-3.42-3.65-5.49-6.77-7.15-2.02-1.08-4.01-.92-5.64.58-1.53,1.41-3.01,2.98-4.1,4.73-3.04,4.87-.73,11.25,4.68,13.24,1.59.58,3.27.94,4.88,1.47,1.24.4,2.42.28,3.56-.27.3-.14.64-.58.64-.88,0-1.54-.12-3.08-.2-4.67-1.84-.57-4.03-.53-5.51-2.34,1.95-1.68,4.06-1.25,6.03-.61.83-1.4,1.6-2.69,2.43-4.08v-.02ZM29,23.59c.55,0,1.1-.08,1.62.02,1.01.2,1.35-.31,1.71-1.15,1.77-4.23,1.81-8.6,1.1-13.02-.32-1.98-1.05-3.85-2.46-5.36-1.71-1.82-3.41-1.86-5.18-.13-.46.45-.89.96-1.28,1.48-3.22,4.37-3.89,9.19-2.37,14.32.58,1.98,1.4,3.88,2.11,5.81,1.27-.69,2.28-1.24,3.34-1.82-1.01-2.74-2.06-5.5-1.58-8.58,2.2,1.74,3.46,5.3,3,8.42h-.01ZM50.71,80.66c-1.27,1.5-2.39,2.8-3.49,4.12-3.23,3.86-6.4,7.77-10.42,10.87-.24.18-.43.59-.42.88.03.71.18,1.42.31,2.3,1.17-.29,2.3-.49,3.37-.85,2.72-.93,5.2-2.27,6.73-4.83,1-1.67,1.96-3.39,2.71-5.18.94-2.23,1.34-4.6,1.2-7.32h.01ZM48.15,79.46c-.06-.08-.12-.16-.18-.23-.45.19-.92.33-1.34.57-4.08,2.37-7.45,5.48-10.04,9.45-.91,1.39-1.08,2.73-.47,4.43,4.07-4.81,8.05-9.52,12.03-14.22h0Z"/>
</svg>