<?xml version="1.0" encoding="UTF-8"?>
<svg id="Calque_1" data-name="Calque 1" xmlns="http://www.w3.org/2000/svg" viewBox="0 0 60.21 58.96">
  <defs>
    <style>
      .cls-1 {
        stroke-width: 0px;
      }
    </style>
  </defs>
  <path class="cls-1" d="M.47,30.32C.31,23.48.1,16.64,0,9.8-.06,5.46,1.98,2.36,5.97.61c.67-.29,1.45-.5,2.17-.5,5.13.03,10.26.16,15.38.2,1.71.02,3.41-.17,5.12-.17,3.97.01,7.93.14,11.9.12,3.07-.02,6.15-.25,9.22-.26,1.49,0,3.03.07,4.45.48,3.04.87,4.83,3.03,5.37,6.13.66,3.79.91,7.59.2,11.41-.11.6-.07,1.23-.08,1.84-.06,6.51-.09,13.01-.17,19.52-.04,3.56-.16,7.11-.26,10.67-.05,1.87-.42,3.62-1.4,5.29-1.36,2.3-3.38,3.41-5.91,3.47-4.31.1-8.62.05-12.93,0-3.56-.04-7.11-.2-10.67-.24-3.42-.04-6.85-.03-10.27.03-2.87.05-5.74.15-8.6.34-4.23.27-7.89-2.63-8.52-6.87-.13-.88-.19-1.77-.22-2.66-.23-6.36-.44-12.72-.66-19.08.12,0,.24,0,.37-.01h0ZM45.18,57.11v-.04c2.39,0,4.79.04,7.18-.01,1.48-.03,2.48-.91,3.39-2.02,1.44-1.77,1.72-3.84,1.78-5.98.11-4.04.18-8.07.27-12.11.19-8.56.41-17.11.53-25.67.02-1.56-.19-3.15-.54-4.67-.51-2.23-1.98-3.78-4.18-4.4-1.29-.36-2.69-.46-4.04-.45-3.28.03-6.56.25-9.84.28-2.39.02-4.78-.21-7.17-.2-4.17.02-8.34.17-12.52.23-3.96.06-7.93.19-11.88.1-2.2-.05-3.64,1.02-4.8,2.63-.97,1.35-1.63,2.91-1.6,4.59.09,4.17.32,8.34.45,12.51.08,2.6.09,5.2.08,7.79,0,2.26-.18,4.52-.11,6.77.14,4.79.46,9.57.57,14.35.06,2.3,1.05,3.9,2.97,5.02,1.67.97,3.53,1.01,5.38,1,4.65-.03,9.31-.13,13.96-.09,6.7.06,13.41.24,20.11.36h0Z"/>
  <path class="cls-1" d="M49.73,29.93c.12,2.79-.67,6.02-2.04,9.13-.3.68-.65,1.38-1.12,1.95-5.86,7.03-13.13,10.72-22.42,8.79-4.6-.96-8.48-3.41-11.45-7.15-.13-.16-.27-.32-.36-.5-2.73-5.74-4.51-11.66-2.73-18.04,1.38-4.92,4.2-8.85,8.69-11.5,3.15-1.86,6.36-3.43,10.1-3.73,2.31-.19,4.54.08,6.64.89,2.16.84,4.29,1.84,6.24,3.07,5.14,3.23,8.35,9.66,8.45,17.1h0ZM35.27,47.53c4.3-2.05,7.96-4.35,10.23-8.17,2.38-4.01,3.18-8.51,2.26-13.08-1.69-8.41-7.19-13.09-15.2-15.13-1.74-.44-3.5-.41-5.29-.11-3.33.56-6.17,2.17-8.92,3.98-3.95,2.6-6.06,6.44-7.17,10.88-.34,1.37-.48,2.88-.27,4.27.38,2.56,1.02,5.09,1.66,7.6.98,3.86,3.65,6.35,6.97,8.22,1.38.78,2.84,1.49,4.67,1.73-.16-1.13-.3-2.05-.44-3-.82-.07-1.5-.1-2.17-.18-1.26-.15-2.37-.61-3.25-1.57-.83-.9-1.68-1.79-2.55-2.65-.71-.71-1.2-1.48-1.13-2.53.07-1.06.48-1.6,1.54-1.44.96.15,1.95.56,2.75,1.1.83.57,1.45,1.45,2.17,2.17.81.81,1.8.62,2.68.27.5-.2.85-.8,1.39-1.34-.56-.26-.79-.44-1.04-.49-6.32-1.11-9.49-8.07-6.2-14.1.4-.73.39-1.35.28-2.13-.16-1.14-.21-2.32-.11-3.47.14-1.53.87-2.1,2.36-1.76,1.25.29,2.48.79,3.64,1.35.83.41,1.6.54,2.52.55,2.31.03,4.62.29,6.94.41.58.03,1.19-.07,1.74-.25.58-.19,1.08-.59,1.65-.81,3.23-1.22,4.87.15,4.41,3.67-.02.14-.05.27-.09.4-.35,1.11-.11,2.04.5,3.09,2.29,4,1.39,11.68-5.47,13.32-.57.14-1.12.38-1.75.6,1.2,2.75.77,5.51.71,8.6h-.02Z"/>
</svg>