<?xml version="1.0" encoding="UTF-8"?>
<svg id="Calque_1" data-name="Calque 1" xmlns="http://www.w3.org/2000/svg" viewBox="0 0 107.82 90.74">
  <defs>
    <style>
      .cls-1 {
        stroke-width: 0px;
      }
    </style>
  </defs>
  <path class="cls-1" d="M76.52,28.38c.28-.16.52-.29.74-.44.74-.47,1.54-.56,2.38-.39.27.05.45.04.65-.21,1.38-1.67,2.78-3.33,4.18-5,.89-1.06,1.77-2.13,2.69-3.24-.03-.1-.09-.27-.13-.43-.42-1.41-.16-2.71.68-3.88.77-1.08,2.07-1.68,3.73-1.25,1.19.31,1.92,1.07,2.45,2.1.51.99.58,2.01.19,3.06-.32.88-.89,1.5-1.73,1.91-.79.4-1.61.62-2.52.4-.56.69-1.11,1.38-1.67,2.06-1.74,2.12-3.48,4.26-5.22,6.38-.13.16-.24.29-.16.55.48,1.69.04,3.14-1.25,4.34-.04.04-.09.07-.17.13.86,4.72,1.72,9.43,2.58,14.19.01,0,.05.05.11.06,1.44.51,2.1,1.67,2.46,3.04.09.33.22.54.51.69,2.01,1.13,3.91,2.44,5.8,3.77,2.2,1.55,4.4,3.09,6.61,4.63.88.61,1.79,1.2,2.67,1.82.38.27.74.39,1.23.3,1.27-.23,2.34.15,3.18,1.16.48.58.88,1.21,1.13,1.92.27.78.25,1.55-.12,2.3-.44.89-1.11,1.55-1.97,2.04-.84.48-1.72.38-2.56.05-1.55-.59-2.54-1.69-2.79-3.37-.03-.21-.09-.34-.27-.47-2.75-1.91-5.47-3.85-8.24-5.72-2.51-1.7-5.08-3.31-7.62-4.96-.98.41-1.89.19-2.84-.08-3.72,3.13-7.45,6.27-11.16,9.39.32,1.79-.16,3.22-1.65,4.21.8,4.59,1.59,9.14,2.37,13.68.93.24,1.62.68,2.19,1.4,1.04,1.33.89,3.44-.12,4.72-1.02,1.31-2.4,1.61-3.96,1.48-.05,0-.11-.04-.17-.04-2.13-.16-2.98-1.93-3.06-3.51-.07-1.21.41-2.17,1.27-2.96.24-.22.5-.41.77-.63-.38-2.19-.77-4.38-1.16-6.58-.41-2.29-.83-4.57-1.24-6.86-.04-.21-.1-.32-.32-.41-1.12-.45-1.88-1.25-2.18-2.43-.07-.26-.19-.38-.43-.47-3.79-1.57-7.62-3.04-11.56-4.24-.79-.24-1.56-.54-2.3-.79-.49.29-.94.61-1.44.83-.99.41-2.02.43-3.04.16-.33-.09-.57-.02-.84.18-3.48,2.62-6.98,5.23-10.47,7.85-1.27.96-2.53,1.94-3.65,2.81-.13.72-.22,1.28-.32,1.84-.32,1.79-2.78,2.86-4.12,2.54-.77-.18-1.47-.41-2.05-.96-.69-.66-1.03-1.47-1.11-2.4-.02-.23-.07-.4-.24-.55-2.11-1.98-4.2-4-6.33-5.97-2.37-2.19-4.79-4.33-7.18-6.5-.21-.19-.43-.28-.72-.29-2.02-.04-3.66-1.39-4.07-3.34-.19-.92-.05-1.78.51-2.58.41-.58.88-1.09,1.49-1.42.44-.24.96-.34,1.43-.5,1.22-2.66,2.45-5.37,3.7-8.07.7-1.52,1.45-3.01,2.14-4.53.39-.85.71-1.74,1.09-2.6.1-.23.04-.39-.08-.58-.41-.65-.6-1.36-.63-2.13-.04-.84.18-1.6.69-2.26.07-.09.13-.19.21-.32-.11-.13-.21-.26-.33-.38-1.89-2.08-3.77-4.15-5.66-6.23-.76-.84-1.51-1.69-2.26-2.54-.18-.21-.35-.26-.65-.2-3.15.6-5.11-1.97-4.47-4.51.18-.69.44-1.35.93-1.89.85-.95,1.87-1.31,3.15-1.13,2.25.31,3.25,2.45,3.31,3.88.01.33-.06.69-.16,1.02-.09.28-.04.45.15.66,1.67,1.83,3.34,3.67,4.99,5.52,1.14,1.28,2.26,2.56,3.38,3.87.24.29.48.42.87.43.69,0,1.38.13,2,.48.34.19.68.45.93.75.24.3.51.44.86.47,1.21.12,2.41.23,3.61.37,1.33.16,2.66.36,3.99.53,1.07.13,2.14.25,3.2.38.82.1,1.63.23,2.45.34,1.2.16,2.4.31,3.6.46.46.06.91.12,1.36.17.09-.12.14-.19.19-.27.88-1.32,2.3-2.02,4-1.42.57.2.93.08,1.37-.31,3.12-2.74,6.26-5.44,9.41-8.16.41-.35.83-.67,1.24-.99v-.73c0-.67.15-1.3.58-1.83.29-.35.34-.7.25-1.16-.46-2.39-.88-4.8-1.28-7.2-.3-1.76-.57-3.52-.85-5.29-.02-.15-.07-.29-.11-.43-2.4-.7-2.79-3.01-2.47-4.55.21-1.02.92-1.75,1.75-2.35,1.41-1.01,2.9-.96,4.35-.21,1.12.58,1.72,1.61,1.81,2.89.08,1.08-.2,2.06-.91,2.89-.14.16-.16.32-.13.53.52,2.99,1.02,5.98,1.55,8.97.24,1.36.55,2.71.82,4.06.05.28.17.48.4.66.66.55,1.18,1.21,1.5,2.01.1.24.26.35.49.44,4.14,1.58,8.27,3.17,12.41,4.75.48.18.96.38,1.46.57h-.04v.05ZM67.83,62.68c3.8-3.1,7.57-6.18,11.31-9.24,0-.08.01-.12,0-.15-.18-1.54.19-2.89,1.33-3.99.1-.1.15-.32.12-.46-.35-2.08-.7-4.16-1.07-6.24-.29-1.64-.62-3.28-.93-4.92-.15-.81-.29-1.62-.44-2.46-2.41-.29-3.21-1.87-3.26-4.01-.8-.44-12.73-4.74-13.31-4.81-.66.58-1.28,1.22-2.23,1.31-.93.09-1.78-.19-2.58-.67-3.8,3.1-7.6,6.17-11.27,9.37.04.19.07.34.1.49.19,1.12-.03,2.18-.77,3.02-.4.44-.51.8-.35,1.32.04.15.06.3.09.45.41,2.23.82,4.45,1.23,6.68.43,2.37.85,4.75,1.27,7.12,1.25.47,1.95,1.37,2.31,2.58.07.23.19.34.41.42,1.1.39,2.2.78,3.3,1.19,2.9,1.11,5.8,2.23,8.69,3.35.58.23,1.16.46,1.74.69,1.21-1.47,2.65-1.69,4.31-1.03h0ZM16.73,39.28c-2.39,5.39-4.74,10.71-7.12,16.07.44.77.91,1.56.9,2.53,0,.12.13.26.24.35.99.88,2.01,1.73,2.98,2.63,1.68,1.55,3.31,3.15,5.01,4.68,1.7,1.53,3.47,2.98,5.19,4.47.32.28.65.45,1.08.4.18-.02.38.01.57.06.55.15,1.1.32,1.67.49,1.44-1.04,2.95-2.08,4.4-3.18,3.16-2.42,6.29-4.87,9.44-7.3.32-.24.46-.49.4-.91-.15-1.07.17-2.03.93-2.79.37-.37.4-.73.31-1.18-.26-1.38-.49-2.76-.74-4.13-.63-3.42-1.26-6.83-1.89-10.25-.05-.26-.16-.44-.4-.59-.6-.41-1.04-.96-1.3-1.65-.04-.1-.09-.21-.13-.29-1.23-.12-2.44-.22-3.63-.36-1.69-.2-3.38-.43-5.08-.64-1.03-.13-2.05-.29-3.08-.4-1.13-.13-2.25-.22-3.38-.32-.91-.08-1.83-.15-2.75-.22-.86,1.55-1.47,2.28-3.64,2.54h.02ZM9.27,60.36c4.35,3.89,8.66,7.73,12.78,11.84.14-.23.24-.38.33-.54-.12-.11-.2-.19-.29-.27-1.65-1.49-3.31-2.98-4.95-4.49-2.06-1.89-4.12-3.8-6.17-5.7-.43-.4-.9-.76-1.36-1.16-.12.11-.21.18-.34.31h0ZM85.9,54.67c5.1,3.17,9.92,6.66,14.84,10.04.12-.18.19-.29.27-.41-4.97-3.35-9.9-6.68-14.85-10.03-.09.13-.16.24-.27.4h.01ZM45.05,55.26c-.83-4.7-1.3-9.4-2.47-13.99-.27-.04-.3.13-.27.35.12.74.23,1.48.39,2.22.72,3.26,1.2,6.57,1.7,9.87.08.52.15,1.05.21,1.59.14,0,.24-.02.44-.03h0ZM58.23,19.93c-.96-4.04-1.61-8.1-2.15-12.21-.19.02-.34.03-.52.04.14.83.27,1.61.4,2.4.43,2.58.85,5.15,1.27,7.72.1.63.23,1.25.35,1.87.02.09.09.16.13.26.17-.02.32-.05.51-.08h.01Z"/>
</svg>