<?xml version="1.0" encoding="UTF-8"?>
<svg id="Calque_1" data-name="Calque 1" xmlns="http://www.w3.org/2000/svg" viewBox="0 0 120.51 183.75">
  <defs>
    <style>
      .cls-1 {
        stroke-width: 0px;
      }
    </style>
  </defs>
  <path class="cls-1" d="M35.74,165.43c-4.2-2.85-7.95-6.41-10.74-10.91-3.47-5.6-5.45-11.73-6.23-18.24-2.08-17.35,2.89-32.95,11.94-47.5,1.71-2.75,3.79-5.22,7.07-6.6-.46-.3-.8-.53-1.14-.74-9.93-6.05-16.78-14.42-19.13-26-1.8-8.88.43-16.76,6.5-23.52.46-.51.94-1.02,1.47-1.6-4.07-4.04-8.17-8-13.99-9.28-2.64-.58-5.36-.79-8.04-1.24-3.24-.55-4.3-2.7-2.74-5.63,2.02-3.79,5.24-6.48,8.8-8.67C14.04,2.71,18.95.74,24.3.08c3.34-.41,5.58.66,6.66,3.88,1.24,3.68,2.09,7.5,2.92,11.3.57,2.63.8,5.34,1.19,8.07,1.87-.68,3.83-1.48,5.84-2.11,1.97-.62,3.99-1.06,5.88-1.56.32-.38.54-.93.9-1.03,1.69-.49,3.4-1.19,5.12-1.21,7.79-.09,15.55.18,22.92,3.19,4.66,1.9,9.32,3.79,14.28,5.81,1.18-1.97,2.48-4.34,3.97-6.58,1.8-2.72,3.56-5.5,5.69-7.95,2.75-3.16,5.59-3.11,8.6-.21,4.17,4.02,7.57,8.64,10.24,13.78,1.34,2.58,2.13,5.32,1.98,8.28-.08,1.53-.61,2.84-2.07,3.51-1.47.68-2.8.09-3.78-.96-3.56-3.8-12.48-3.9-16.31-.68,3.54,8.79,3.3,17.66.05,26.45-3.21,8.68-8.62,15.76-16.2,21.15,6.56,4.25,9.28,10.92,11.2,17.94,4.79,17.5,2.11,34.18-5.96,50.18-.44.88-.95,1.72-1.63,2.95,1.44.62,2.76,1.2,4.03,1.75.13-2.19.06-4.07.4-5.88.54-2.86,2.3-4.61,4.51-4.91,2.58-.35,4.47,1.2,4.63,3.79.23,3.52-1.42,6.17-3.97,8.37,1.22,1.66,3,2.31,5.09,1.67,2.48-.76,4.92-1.65,7.55-2.55-2.9,5.37-10.13,9.16-15.66,3.1-.34-.37-.96-.61-1.49-.68-2.32-.32-4.63-.63-6.29-2.55-2.02,2.28-4.01,4.52-5.98,6.77-.14.16-.22.43-.23.66-.25,4.49-.47,8.97-.72,13.46-.02.44-.13.88-.28,1.3-.8,2.25-2.78,2.73-4.55,1.11-1.71-1.56-1.72-1.57-3.05.27-.67.93-1.45,1.69-2.7,1.47-1.33-.24-1.84-1.27-1.99-2.47-.33-2.64-.61-5.28-.91-7.95-2.12.15-4.22.4-6.32.43-2.12.03-4.24-.16-6.23-.25-1.05,3.15-2.06,6.24-3.12,9.3-.24.69-.58,1.38-1.02,1.97-1.34,1.82-3.36,1.69-4.44-.29-.56-1.03-.98-2.15-1.51-3.32-.57.38-1.04.72-1.54,1.01-1.85,1.09-3.57.43-4.19-1.63-.2-.66-.35-1.35-.37-2.04-.06-1.78-.07-3.57-.02-5.35.05-1.77.2-3.53.31-5.43v.02ZM79.04,85.05c.12-.03.02-.03-.06.02-8.9,4.7-18.18,5.44-27.73,2.48-3.9-1.21-7.69-2.78-11.63-4.23-.3.34-.69.79-1.09,1.23-6.09,6.78-10.18,14.7-13.09,23.27-3.85,11.35-5,22.84-1.9,34.57,4.61,17.41,20.46,28.36,39.99,25.13,6.47-1.07,11.45-4.77,15.53-9.71,9.22-11.15,12.52-24.36,13.13-38.45.25-5.83-.77-11.54-2.41-17.11-1.48-5.02-3.49-9.79-7.36-13.54-1.16-1.12-2.2-2.38-3.38-3.66h0ZM96.7,49.17v-1.34c.02-8.22-3.32-14.58-10.83-18.15-5.12-2.43-10.48-4.39-15.84-6.24-2.39-.83-5.03-1-7.57-1.25-2.71-.26-5.46-.09-8.15-.42-2.29-.27-4.45-.16-6.69.41-8.31,2.1-15.65,5.75-21.22,12.5-4.23,5.12-6.48,10.9-5.76,17.56.8,7.39,4.07,13.68,9.11,19.1,5.67,6.1,12.94,9.5,20.65,12.14,6.26,2.14,12.6,2.8,19.12,1.3,17.2-3.95,27.83-22.66,27.2-35.62h-.02ZM32.7,24.58c-.5-2.15-.94-4.16-1.45-6.15-1.05-4.11-2.03-8.24-3.25-12.3-.73-2.41-1.23-2.81-3.71-2.33-7.76,1.5-14.73,4.56-19.73,11.05-.31.41-.52.9-1.02,1.77,10.12.01,18.16,3.9,24.32,11.37,1.81-1.28,3.39-2.39,4.84-3.41ZM96.08,32.09c6.73-3.85,13.42-3.81,20.54.23-.8-2.07-1.3-3.84-2.13-5.44-2.26-4.38-5.1-8.36-8.58-11.87-1.86-1.87-2.35-2.05-3.99.05-3.39,4.35-6.51,8.91-9.52,13.06,1.41,1.52,2.55,2.75,3.68,3.97h0ZM47.79,170.72c-3.04-1.08-6.18-2.2-9.32-3.32.14,2.71.29,5.52.45,8.49,3.16-2.03,3.51-1.91,6.5,2.01.79-2.41,1.58-4.78,2.37-7.17h0ZM67.27,170.29c.25,1.76.51,3.54.8,5.58,1.98-1.65,3.91-1.5,6.09-.44v-8.48c-2.18,1.06-4.47,2.17-6.89,3.34h0ZM93.52,154.67c1.64-1.27,2.33-2.82,2.51-4.61.04-.36-.32-.77-.5-1.15-.41.21-.96.31-1.2.64-1.06,1.48-1.09,3.17-.81,5.12Z"/>
  <path class="cls-1" d="M75.03,126.29c-.62.58-1.13,1.05-1.63,1.52-.86.83-2.01,1.28-2.97.68-.76-.48-1.12-1.59-1.64-2.43-.07-.11-.05-.29-.04-.44.28-3.74.57-7.48.87-11.22.03-.33.1-.79.32-.96.57-.44,1.25-1.04,1.86-1.02.38.01.98,1.03,1.02,1.63.1,1.32-.11,2.66-.15,3.99-.03,1.37,0,2.74,0,4.12,3.19-1.57,3.36-1.5,6.37,2.56,2.09-3.68,1.26-8.64,4.97-11.75,1.77,2.18,1.49,4.47.94,6.67-.69,2.77-1.63,5.49-2.54,8.2-.44,1.31-1.26,2.4-2.79,2.56-1.56.17-2.45-.85-3.24-1.98-.47-.68-.9-1.4-1.36-2.14h0Z"/>
  <path class="cls-1" d="M47.76,112.74c1.22,4.9-.93,8.75-3.04,12.52-.95,1.7-3.09,1.68-4.41.09-1.02-1.24-1.78-2.7-2.71-4.16-.72.5-1.44,1.08-2.23,1.55-2.22,1.33-4.25.28-4.07-2.26.21-2.93.71-5.85,1.15-8.76.08-.57.34-1.16.69-1.62.25-.33.78-.46,1.18-.68.17.37.48.73.49,1.1.05,2.06.02,4.13.03,6.19,0,.33.03.66.05,1.02,2.74-1.17,5.26-.12,7.57,3.17.67-1.53,1.31-3.01,1.97-4.47.68-1.51,1.66-2.76,3.33-3.69Z"/>
  <path class="cls-1" d="M55.14,73.53c-4.72-.12-8.89-1.65-12.51-4.55-6.9-5.54-6.27-14.71,1.36-19.16,5.18-3.02,10.76-3.72,16.6-2.2.76.2,1.61.18,2.29.51,1.13.54,2.52,1.04,3.17,1.98,3.27,4.72,4.62,9.95,2.9,15.58-1.26,4.13-4.74,5.92-8.58,6.98-1.69.47-3.49.58-5.24.86h.01ZM55.7,69.9c1.43-.38,3.54-.75,5.48-1.52,2.41-.96,4.05-2.66,4.37-5.49.36-3.14-.68-5.94-1.8-8.72-.69-1.71-2.05-2.79-3.99-2.88-2.5-.11-5.03-.41-7.5-.18-2.72.26-5.27,1.3-7.46,3.04-3.25,2.6-3.88,6.49-1.48,9.88,2.84,4,7.04,5.35,12.37,5.86h.01Z"/>
  <path class="cls-1" d="M41.58,42.47c-1.53,0-2.58-1-2.56-2.45.02-1.81.72-2.82,1.94-2.81,1.89.01,3.58,1.24,3.61,2.62.03,1.44-1.33,2.64-2.99,2.65h0Z"/>
  <path class="cls-1" d="M75.3,46.58c-1.58-.02-2.72-1.17-2.7-2.69.02-1.51,1.19-2.67,2.62-2.61,1.65.07,2.77,1.14,2.78,2.65,0,1.57-1.11,2.67-2.71,2.65h.01Z"/>
  <path class="cls-1" d="M60.42,61.78c0,1.64-.82,2.85-1.95,2.86-1.12.01-1.95-1.14-1.93-2.68.02-1.57.8-2.6,1.98-2.63,1.21-.03,1.9.87,1.89,2.45h0Z"/>
  <path class="cls-1" d="M47.02,60.23c-.02-1.38.72-2.54,1.66-2.61.88-.06,1.79,1.3,1.79,2.67,0,1.23-.76,2.12-1.78,2.11-1.03-.01-1.65-.81-1.67-2.17Z"/>
</svg>