<?xml version="1.0" encoding="UTF-8"?>
<svg id="Calque_1" data-name="Calque 1" xmlns="http://www.w3.org/2000/svg" viewBox="0 0 75.16 226.32">
  <defs>
    <style>
      .cls-1 {
        stroke-width: 0px;
      }
    </style>
  </defs>
  <path class="cls-1" d="M29.46,189.18c-1.89,3.05-3.72,6.13-5.68,9.13-4.84,7.41-9.75,14.78-14.63,22.17-.78,1.19-1.48,1.53-2.17,1.09-.71-.44-.69-1.37.08-2.52,5.19-7.72,10.4-15.41,15.56-23.15,1.63-2.44,3.03-5.02,4.71-7.42.79-1.12.97-2.2.98-3.48.02-6.74.1-13.49.17-20.23.05-4.66.12-9.32.19-13.99.05-3.56.12-7.12.19-10.67.06-3.12.13-6.23.19-9.35.07-4.41.12-8.82.19-13.23.05-3.43.08-6.87.2-10.3.14-3.99.35-7.98.54-11.97.02-.49.14-.98.18-1.29-2.62-.59-5.2-1.02-7.67-1.77-4.16-1.26-7.63-3.68-10.52-6.93-.27-.3-.74-.51-1.15-.59-.72-.14-.9-.53-.9-1.2,0-.46-.05-.98-.27-1.36-2.4-4-3.67-8.31-3.7-12.99-.06-9.8,3.8-17.87,10.79-24.57.54-.52,1.06-1.08,1.67-1.52.58-.42,1.26-.7,2.06-1.13-.34-.06-.52-.11-.71-.12-4.12-.12-8.25-.09-12.36-.39-3.29-.25-4.77-.83-5.79-4.62-.55-2.02-.95-4.12-1.05-6.21-.21-4.28-.25-8.57-.2-12.85.04-3.68.59-7.29,2.58-10.5C5.29,3.43,8.52.77,13.04.14c4.36-.61,8.11.72,10.92,4.21,1,1.25,1.77,2.68,2.7,3.99,1.55,2.18,3.31,4.15,5.87,5.19,1.87.76,3.78.96,5.72.31,2.47-.83,4.93-1.72,7.41-2.53.77-.25,1.59-.38,2.4-.46,2.43-.25,4.31.76,5.68,2.69,2.3,3.26,4.15,6.78,5.38,10.57,1.19,3.64,2.2,7.35,3.1,11.08.5,2.1.68,4.28.88,6.44.16,1.68-.84,2.18-2.39,1.52-.87-.37-1.88-.46-2.84-.54-2.85-.23-5.7-.48-8.56-.57-4.28-.14-8.57-.17-12.85-.24-.82,0-1.64,0-2.73,0,.35.2.45.29.56.32,4.43,1.15,8.44,3.27,12.44,5.41.57.3,1.24.41,1.82.71,4.98,2.55,9.43,5.75,12.27,10.74,3.12,5.47,2.98,11.05.15,16.53-4.56,8.81-11.97,14.21-21.33,17-2.59.77-5.35,1-7.94,1.46-.22,9.7-.44,19.59-.67,29.78.47-.43.72-.63.95-.86,8.88-8.92,18.21-17.36,27.82-25.48,1.45-1.23,2.96-2.36,5.03-2.71-.27,1.13-.77,2.11-1.54,2.92-.76.79-1.59,1.53-2.44,2.23-9.56,7.8-18.63,16.14-27.34,24.87-.51.51-.99,1.1-1.58,1.49-.85.56-1,1.27-1.01,2.23-.03,5.61-.13,11.22-.2,16.82-.07,5.13-.14,10.27-.19,15.41-.07,7.34-.1,14.69-.17,22.03,0,.94-.04,1.9-.24,2.81-.15.66.11,1.03.42,1.52,1.62,2.63,3.27,5.24,4.76,7.94,4.72,8.55,9.37,17.13,14.05,25.7.51.94,1.11,1.84,1.57,2.8.26.55.44,1.2.43,1.8-.02,1.01-.75,1.36-1.54.73-.53-.42-.99-.99-1.32-1.58-1.72-3.18-3.53-6.33-5.06-9.61-3.91-8.38-8.56-16.34-13.16-24.34-.28-.49-.57-.97-.77-1.32l-.04.03ZM60.27,41.37c-.05-.61-.07-1.08-.12-1.54-.41-3.93-1.55-7.69-2.56-11.49-1.23-4.63-3.01-9.01-5.63-13.03-1.26-1.93-2.57-2.49-4.77-1.86-2.41.7-4.74,1.68-7.15,2.38-1.49.43-3.08.83-4.61.79-3.07-.08-5.83-1.25-7.88-3.56-1.77-1.99-3.39-4.14-4.84-6.38-2.55-3.95-8.15-5.76-12.91-2.98-4.85,2.84-6.89,7.33-7.05,12.7-.14,4.85-.03,9.71.2,14.56.1,2.01.77,4,1.25,5.98.28,1.15,1.09,1.83,2.3,1.92,3.48.26,6.96.59,10.45.72,3.4.12,6.8,0,10.2.03,4.03.04,8.06.12,12.1.18,3.59.06,7.19.03,10.77.23,3.37.19,6.8.1,10.24,1.35h0ZM50.97,52.59c-.96-.59-1.72-1.15-2.57-1.55-2.75-1.32-5.53-2.58-8.29-3.88-5.38-2.53-11-3.77-16.95-2.99-2.51.33-4.83,1.01-6.65,3.08-4.6,5.21-7.68,11.09-8.5,18.05-.6,5.12.25,9.96,2.68,14.51.35.65.77,1.26,1.14,1.87.19-.09.25-.11.3-.15,7.46-5.55,14.88-11.16,22.93-15.85.2-.12.34-.49.35-.75.05-1.38-.02-2.76.09-4.13.1-1.22,1.01-1.9,2.26-1.9,1.58,0,3.15.01,4.73-.01.28,0,.61-.1.83-.27.73-.58,1.4-1.25,2.14-1.82,1.78-1.39,3.6-2.75,5.52-4.21h0ZM36,67.61c-7.89,4.94-15.41,10.23-22.84,16.09,1.49,1.28,2.81,2.64,4.35,3.69,5.79,3.95,12.22,5.05,19,3.65,9.13-1.89,16.32-6.78,21.32-14.69,2.15-3.4,3.37-7.13,2.58-11.23-.95-4.91-3.88-8.48-7.82-11.33-1.72,1.56-3.38,3.07-5.1,4.64,1.71.04,1.94.21,2.39,1.72.09.3.19.6.27.9,1.19,4.76-1,8.77-5.66,10.2-1,.31-2.12.5-3.14.36-2.4-.33-4.31-1.51-5.34-4.01h-.01Z"/>
  <path class="cls-1" d="M75.16,72.16c-.6,2.74-1.21,5.85-1.98,8.92-.56,2.25-1.3,4.47-2,6.68-.2.62-.15.99.4,1.44,3.35,2.67,2.68,7.44-1.28,9.08-.71.29-.77.65-.83,1.31-.13,1.4-.28,2.82-.69,4.15-.43,1.41-1.53,1.8-2.85,1.33-1.05-.38-1.35-.98-1.23-2.12.19-1.78.27-3.56.45-5.34.32-3.18.62-6.37,1.04-9.55.54-4.08,1.19-8.14,1.8-12.2.69-4.56,1.37-9.13,2.09-13.69.1-.64.27-1.33.62-1.86.24-.37.88-.74,1.28-.68.39.06.89.62,1,1.04.51,2.1.93,4.22,1.33,6.34.3,1.57.52,3.16.85,5.16h0ZM68.66,87.78c.06,0,.13,0,.19.01.76-2.55,1.54-5.09,2.28-7.64,1.34-4.61,2.37-9.25.88-14.02-1.11,7.19-2.23,14.42-3.36,21.65h0ZM67.3,96.28c2.25.02,3.78-1.12,3.91-2.74.12-1.59-1.31-3.37-3-3.63-.3,2.09-.6,4.18-.91,6.36h0ZM66.46,103.45c1.08-1.51,1.13-3.05,1.38-4.76-.41.18-.82.27-.83.38-.12,1.38-1.24,2.61-.55,4.38Z"/>
  <path class="cls-1" d="M28.57,126.91c-.77-.43-1.62-.76-2.3-1.3-3.76-3.02-7.54-6-11.19-9.16-4.79-4.14-9.75-8.1-13.88-12.96-.9-1.05-1.53-2.17-1.01-3.67,1.36-.08,2.15.82,3,1.72,2.19,2.3,4.3,4.71,6.69,6.8,4.86,4.25,9.93,8.26,14.82,12.48,1.41,1.22,2.55,2.76,3.74,4.21.32.39.34,1.01.5,1.53l-.37.35h0Z"/>
  <path class="cls-1" d="M26.53,31.82c-.95.57-1.85.96-2.73.08-1.52-1.53-1.99-3.27-1.31-4.68.15-.32.28-.7.26-1.05-.26-4.67,3.11-7.67,7.56-7.22,3.47.35,5.24,2.05,6.14,5.51.56,2.17.6,4.29-.22,6.37-.45,1.16-1.17,2.19-2.57,2.15-.65-.02-1.33-.4-1.92-.74-.25-.14-.33-.6-.63-.83-.72,1.11-1.03,2.21-2.34,2.31-1.35.09-1.85-.84-2.25-1.91h.01ZM33.72,30.96c.29-.68.6-1.22.76-1.8.46-1.63.21-3.26-.34-4.81-1.1-3.08-2.96-3.8-6.02-3.11-2.31.52-3.81,2.66-3.8,5.22,0,1.2-.19,2.52.79,3.39.77-.16,1.44-.49,2.03-.38.59.12,1.09.67,1.65,1.05,1.35-1.78,2.61-1.74,4.94.45h0Z"/>
  <path class="cls-1" d="M30.64,38.87c-1.58-.14-2.94-.17-4.26-.41-1.31-.24-2.26-1.79-2.07-3.08.13-.89,1.08-1.39,1.95-1.01.28.13.52.35.8.49.61.3,1.17.48,1.82-.05,1.12-.91,3.3-.94,4.52-.15.81.53,1.21,1.28,1.1,2.24-.1.93-.8,1.32-1.59,1.53-.82.21-1.66.33-2.27.44h0ZM29.47,36.49h3.26c-.79-1.16-2.25-1.1-3.26,0Z"/>
  <path class="cls-1" d="M40.46,36.38c-.37-.33-.76-.65-1.1-1-.46-.47-.95-.93-1.3-1.47-.18-.27-.23-.89-.05-1.06.21-.2.84-.26,1.08-.09,1.26.93,2.46,1.94,3.65,2.96.24.21.38.58.5.9.56,1.47-.26,2.64-1.83,2.56-1.8-.09-3.26-.95-4.4-2.27-.32-.37-.23-1.09-.33-1.65.57,0,1.19-.13,1.68.07.7.29,1.3.83,1.95,1.26.06-.07.11-.14.17-.2h-.02Z"/>
  <path class="cls-1" d="M23.99,19c-.34.57-.5,1.21-.82,1.29-.41.11-1.07-.07-1.4-.37-.97-.89-1.86-1.86-2.72-2.86-.55-.64-.91-1.43-.31-2.23.59-.79,1.46-.76,2.22-.37,1.07.55,2.09,1.23,3.07,1.93.33.24.56.68.72,1.08.39.94.04,1.47-.76,1.53h0Z"/>
  <path class="cls-1" d="M36.33,21.37c.06-.31.03-.68.18-.93.87-1.41,1.86-2.71,3.47-3.35.69-.27,1.42-.52,2.03.1.65.67.59,1.55.06,2.16-1.06,1.22-2.24,2.35-3.45,3.43-.18.17-.76-.1-1.15-.17.11-.42.09-.95.34-1.22.76-.79,1.62-1.48,2.44-2.22.11-.1.19-.24.28-.36-.05-.06-.1-.13-.15-.19-1.27.97-2.54,1.95-3.81,2.92l-.25-.18h0Z"/>
  <path class="cls-1" d="M22.2,34.86c.43.24,1.05.41,1.07.63.04.43-.14,1.02-.45,1.31-.88.84-1.81,1.68-3.16,1.66-1.1-.02-1.71-.8-1.31-1.82.67-1.71,2.12-2.69,3.6-3.6.21-.13.79-.03.91.15.14.2.02.66-.11.95-.13.3-.41.53-.56.71h0Z"/>
  <path class="cls-1" d="M25.94,62.19c-.04,1.44-1.29,2.77-2.58,2.76-1.12-.01-1.95-1.1-1.9-2.47.06-1.55,1.13-2.89,2.31-2.89s2.21,1.2,2.17,2.61h0Z"/>
  <path class="cls-1" d="M23.18,54.59c.46-.04,1-.25,1.36-.08,1.14.51,2.27,1.1,3.29,1.81.36.25.41.96.59,1.46-.52.08-1.1.34-1.56.2-1.63-.51-2.64-1.83-3.75-3,.02-.13.04-.26.06-.39h.01Z"/>
  <path class="cls-1" d="M32.87,85.04c-1.26.09-2.32-.39-3.02-1.32-1.28-1.71-2.45-3.49-3.59-5.3-.43-.67-.02-1.42.96-1.7,1.39-.4,2.81-.68,4.22-.96,2.86-.57,5.74-1.1,8.61-1.64.34-.06.68-.13,1.03-.14.9-.03,1.6.67,1.34,1.51-.54,1.73-1.01,3.54-1.89,5.11-1.64,2.91-4.4,4.18-7.64,4.45h-.02ZM28.74,78.46c1.15,1.43,2.11,2.73,3.19,3.92.27.3.95.39,1.4.32,2.96-.44,5.73-2.41,6.22-6.11-3.51.61-6.98,1.21-10.8,1.87h0Z"/>
  <path class="cls-1" d="M31.24,27.11c-.5-.03-.85-.42-.86-1.08,0-.7.59-1.28,1.26-1.25.68.03,1.03.42,1.04,1.09,0,.7-.56,1.24-1.44,1.24h0Z"/>
  <path class="cls-1" d="M28.35,25.98c-.61.44-1,.91-1.26.85-.34-.08-.8-.57-.81-.91,0-.28.5-.78.83-.83.29-.04.64.43,1.25.88h-.01Z"/>
</svg>