<?xml version="1.0" encoding="UTF-8"?>
<svg id="Calque_1" data-name="Calque 1" xmlns="http://www.w3.org/2000/svg" viewBox="0 0 101.17 78.05">
  <defs>
    <style>
      .cls-1 {
        stroke-width: 0px;
      }
    </style>
  </defs>
  <path class="cls-1" d="M10.37,66.77c-6.44-.15-11.04-6.3-10.29-13.31.63-5.89,3.39-10.49,8.4-13.69,1.97-1.26,4.04-2.13,6.57-1.63.2-.87.36-1.7.59-2.51,3.28-11.49,9.35-21.22,18.42-29.03C39.37,2.02,45.6-.33,52.59.04c5.73.3,11.33,1.55,16.54,4.13,3.61,1.79,6.19,4.68,8.14,8.09,4.4,7.72,7.76,15.83,8.91,24.73.15,1.18,2.34,2.82,3.47,2.6,1.01-.19,2.01-.46,3.03-.59,4.46-.57,8.24,2.67,8.47,7.19.18,3.52-.93,6.42-3.88,8.52-.24.17-.45.62-.42.92.4,4.13-1.11,7.61-4.07,10.3-3.41,3.1-7.59,4.71-12.22,4.88-3.6.13-6.84-1.01-9.36-3.61-1.36-1.41-2.55-1.52-4.3-.81-3.06,1.26-6.29,1.74-9.61,1.08-3.97-.79-9.48-6.22-8.86-10.5.2-1.37.49-2.94,1.31-3.96,1.59-1.99,3.59-3.65,5.38-5.47.25-.26.51-.69.49-1.02-.18-2.43-.83-4.75-2.12-6.83-1.09-1.75-2.32-2.01-4.14-1.01-2.69,1.47-4.09,3.85-4.71,6.76-.05.23.04.6.21.76,2.69,2.6,2.99,4.81,1.18,7.86-.43.72-.63,1.64-.72,2.48-.4,3.6-1.38,6.77-5.25,8.15-.31.11-.61.58-.68.93-1.5,7.19-7.8,12.43-15.15,12.43-1.83,0-3.72-.17-5.47-.65-5.4-1.49-8.09-4.99-8.4-10.62h.01ZM3.88,55.06c-.02,5.24,3.36,8.31,8.44,7.65,2.01-.26,3.07,1.06,2.51,3.01-.26.92-.51,1.94-.37,2.86.42,2.68,2.34,4.16,4.71,5.01,7.78,2.77,16.35-2.17,16.57-10.59.04-1.4,1.03-2.3,2.36-2.09,1.39.22,2.2-.51,2.6-1.61.41-1.11.67-2.32.69-3.5.03-1.39.25-2.58,1.2-3.68,1.03-1.18.87-1.96-.27-3.04-.25-.24-.45-.52-.66-.79-2.38-3.08-7.02-3.04-9.2.08-1.41,2.01-2.9,1.92-4.1-.25-.08-.15-.16-.31-.25-.45-1.41-2.34-3.63-3.06-6.13-2.01-1.4.59-2.25.31-3.03-1.01-1.37-2.31-5.31-3.44-7.6-2.13-4.84,2.77-7.41,6.91-7.48,12.54h0ZM25.05,41.21c.89-6.92,3.29-13.28,7.67-18.64,6.08-7.44,13.86-11.3,23.74-9.66,7.15,1.19,12.16,5.04,14.48,12.02.98,2.93,1.84,5.92,2.52,8.93.67,2.93,1.03,5.92,1.57,8.88.06.33.37.73.67.87.18.08.74-.22.83-.46,1.08-2.74,2.83-4.79,5.81-5.65-1.43-8.97-4.51-17.15-9.4-24.64-1.55-2.37-3.58-4.28-6.21-5.5-4.51-2.09-9.29-3.19-14.2-3.47-6.01-.35-11.37,1.67-15.97,5.51-9,7.52-14.77,17.14-18.17,28.28-.36,1.17-.2,1.81.99,2.27.62.24,1.1.81,1.67,1.19.3.2.66.44.99.43.98-.05,1.95-.22,3.01-.36h0ZM80.42,67.06c2.59.03,5.01-.95,7.33-2.21,4.35-2.36,5.91-5.92,4.73-10.72-.3-1.25.29-2.46,1.51-2.51,1.98-.08,2.68-1.39,3.12-2.9.46-1.61.48-3.29-.71-4.65-1.19-1.35-2.72-1.38-4.39-.99-1.45.34-2.96.47-4.45.61-1.08.1-1.7-.52-1.88-1.55-.26-1.5-.56-1.71-2.08-1.35-1.3.3-2.28,1.04-2.88,2.19-.48.91-.82,1.89-1.21,2.84-.77,1.89-1.8,2.42-3.76,1.78-1.61-.52-3.09-.47-4.53.55-1,.71-2.25.97-3.28.24-1.09-.77-1.9-.39-2.78.18-.5.32-1.03.66-1.43,1.09-1.43,1.54-3.13,1.9-5.05,1.19-1.04-.38-1.89-.1-2.6.59-1.04,1.02-2.05,2.09-2.98,3.22s-1.33,2.55-.72,3.88c1.19,2.59,3.06,4.63,5.95,5.3,2.79.65,5.44-.21,8.05-1.13.76-.27,1.55-.53,2.35-.64,1.97-.29,3.35.81,4.63,2.09,1.92,1.92,4.21,2.93,7.07,2.91h-.01ZM30.62,44.53c.74-.46,1.51-.91,2.24-1.42.24-.17.48-.48.52-.76.62-4.17,2.35-7.89,4.53-11.43,2.29-3.72,5.58-6.15,9.74-7.41,5.09-1.54,8.31-.4,11.42,3.93,3.54,4.93,6.44,10.16,7.5,16.16,1.66.22,3.19,1.94,4.78-.04-.08-1.02-.04-2.2-.3-3.32-1.02-4.34-1.99-8.71-3.24-12.99-2.21-7.6-6.96-10.55-14.76-10.93-7.03-.34-12.74,2.92-17.21,8.17-4.21,4.94-6.62,10.82-7.97,17.14-.06.29.05.77.26.95.8.7,1.67,1.32,2.48,1.93v.02ZM41.9,44.08c.33-2.79,1.6-5.12,3.72-6.98,4.74-4.18,9.52-3.11,11.84,2.75.75,1.89,1.03,3.97,1.58,5.95.15.52.39,1.26.78,1.41s1.04-.25,1.52-.52c.41-.22.7-.65,1.11-.87.64-.35.74-.81.62-1.49-1.1-6.17-4.3-11.28-8.08-16.1-.93-1.18-2.2-1.77-3.74-1.63-3.07.27-5.77,1.45-7.96,3.58-3.47,3.35-5.21,7.69-6.77,12.05,1.84.63,3.57,1.23,5.39,1.85h0Z"/>
</svg>