<?xml version="1.0" encoding="UTF-8"?>
<svg id="Calque_1" data-name="Calque 1" xmlns="http://www.w3.org/2000/svg" viewBox="0 0 60.87 86.5">
  <defs>
    <style>
      .cls-1 {
        stroke-width: 0px;
      }
    </style>
  </defs>
  <path class="cls-1" d="M14.7,78.52c-.81-3.09-1.67-6.18-2.42-9.28-2.78-11.55-5.53-23.1-8.26-34.67-.26-1.11-.3-2.27-.38-3.41-.08-1.03.41-1.8,1.37-2.17.97-.38,1.86-.06,2.47.73.64.83,1.2,1.74,1.69,2.68,5.25,9.96,10.45,19.95,15.72,29.9,1.67,3.15,3.51,6.2,5.56,9.16-1.06-2.77-2.12-5.54-3.18-8.31-5.09-13.24-10.17-26.48-14.09-40.12-1.63-5.68-2.87-11.47-4.19-17.23-.27-1.18-.25-2.48-.1-3.69.25-2.07,2.19-2.8,3.72-1.36,1.02.96,1.92,2.13,2.6,3.36,2.66,4.78,5.27,9.58,7.8,14.43,4.68,8.96,9.29,17.96,13.93,26.94.21.4.45.79.84,1.12-.64-2.25-1.3-4.49-1.9-6.75-.38-1.42-.68-2.86-.96-4.3-.1-.53-.11-1.11-.04-1.65.26-2.13,2.31-3.04,3.94-1.66,1,.85,1.75,1.99,2.6,3.02.32.38.59.81,1.02,1.41-.28-2.35-.54-4.44-.77-6.53-.06-.54-.06-1.1,0-1.64.4-3.3,2.77-4.37,5.31-2.17,3.89,3.37,7.61,6.94,11.37,10.46.93.87,1.74,1.88,2.52,2.92-5.71-2.17-10.75-5.36-15.19-9.55-.12.04-.23.09-.35.13.41,2.49.84,4.97,1.21,7.47.2,1.36.49,2.75.36,4.09-.08.82-.7,1.96-1.39,2.25-.69.3-2.01.02-2.6-.51-1.24-1.12-2.19-2.57-3.44-3.85,1.08,3.56,2.16,7.13,3.26,10.69.68,2.19,1.39,4.38,2.08,6.57.14.44.24.89.34,1.33.23,1.05,0,1.98-.99,2.48-1.07.55-1.99.09-2.65-.8-.65-.89-1.28-1.81-1.79-2.78-4.31-8.22-8.56-16.47-12.9-24.68-4.46-8.45-9-16.86-13.51-25.29-.26-.48-.58-.91-.87-1.37-.11.04-.22.07-.33.11.72,3.27,1.35,6.55,2.18,9.79,3.83,14.97,9.28,29.4,14.86,43.78,2.97,7.66,6.05,15.29,9.06,22.94.25.63.55,1.34.48,1.98-.08.69-.42,1.7-.91,1.9-.6.25-1.7.04-2.21-.39-.85-.72-1.51-1.73-2.09-2.71-4.98-8.38-9.99-16.74-14.85-25.19-2.86-4.98-5.46-10.11-8.17-15.18-.34-.64-.71-1.27-1.29-1.84,1.06,4.66,2.04,9.35,3.2,13.99,2.14,8.5,4.4,16.97,6.57,25.46.26,1.01.43,2.09.38,3.13-.1,2.03-2.04,2.94-3.67,1.73-.83-.62-1.56-1.44-2.18-2.28-4.77-6.38-9.33-12.89-13.05-19.95-.4-.76-.75-1.59.1-2.21.86-.63,1.62-.09,2.14.59.94,1.24,1.78,2.57,2.66,3.86,2.78,4.06,5.55,8.13,8.34,12.18.25.37.57.7.85,1.04.07-.03.13-.06.2-.09h-.01Z"/>
</svg>