<?xml version="1.0" encoding="UTF-8"?>
<svg id="Calque_1" data-name="Calque 1" xmlns="http://www.w3.org/2000/svg" viewBox="0 0 127.08 114.05">
  <defs>
    <style>
      .cls-1 {
        stroke-width: 0px;
      }
    </style>
  </defs>
  <path class="cls-1" d="M11.18,25.52c-3.98-3.29-5.77-7.74-7.34-12.33C2.81,10.18,1.71,7.18.63,4.18.14,2.81-.15,1.45,1.2.43,2.28-.39,4.17-.03,5.13,1.54c1.19,1.95,2.2,4.08,2.85,6.26,1.49,4.98,2.76,10.02,5.91,14.05,1.97-.55,3.92-1.06,5.84-1.66.33-.1.6-.56.81-.9,2.69-4.22,5.22-8.56,8.11-12.64,1.15-1.62,3.11-2.68,4.89-3.81.53,2.48.76,4.76-.5,6.75-2.2,3.49-4.54,6.89-6.83,10.32-.38.56-.8,1.09-1.27,1.74,4.05,2.59,5.96,6.55,7.38,11.14.32-.49.54-.74.67-1.04,2.16-5.12,5.24-9.68,8.65-14.03,3.58-4.57,8.54-7.31,13.53-9.95,7.21-3.82,14.87-6.63,23.07-6.59,17.93.08,31.63,8.18,41.42,23.1,4.21,6.41,6.89,13.4,7.34,21.04.53,8.83-1.59,16.93-8.06,23.41-2.91,2.92-5.95,5.7-8.93,8.54,3.07,1.12,5.2,3.64,7.08,6.24,3.1,4.28,2.26,8.8-.13,13.1-3.84,6.91-9.91,11.11-17.15,13.88-8.84,3.38-17.89,4.17-27.29,3.14-11.92-1.3-23.6-3.49-34.98-7.28-7.86-2.62-15.08-6.39-21.6-11.51-8.6-6.75-13.2-15.67-15.14-26.37-2.74-15.13,1.87-28.4,9.24-41.15.31-.54.67-1.06,1.14-1.79h0ZM77.41,108.38c9.57.41,17.15-1.42,24.34-5.01,4.21-2.1,7.52-5.17,9.85-9.25.61-1.07.94-2.3,1.36-3.46,1.1-3.05-3.41-7.84-7.27-8.32-3-.38-5.97-1.21-8.95.33-1.06.55-2.41.62-3.65.74-6.26.6-12.19-.99-17.93-3.18-5.99-2.28-10.83-6.19-14.69-11.32-.46-.61-1.32-1.31-2.01-1.32-5.22-.05-10.03-1.56-14.42-4.2-6.86-4.12-11.7-9.76-12.41-18.17-.1-1.15-.27-2.35-.72-3.39-.61-1.45-1.6-2.73-2.27-4.16-1.42-3.04-2.37-6.38-4.18-9.15-2.5-3.83-6.09-3.7-8.56.14-7.49,11.65-12.3,23.98-9.81,38.28,1.52,8.69,4.85,16.27,11.64,22.1,4.98,4.27,10.5,7.72,16.6,10.14,14.32,5.7,29.25,8.49,43.09,9.2h0ZM55.58,61.52c-.48-2.95-1.17-5.45-1.25-7.97-.43-14.81,9.08-25.93,23.78-27.92,6.45-.88,12.38.72,17.49,4.67,1.69,1.31,3.17,3.32,3.95,5.32,3.77,9.64-3.76,21.55-14.07,22.57-4.01.4-6.07-.79-7.14-4.18-.17-.55-.11-1.16-.16-1.75.63.1,1.35.03,1.86.33,1.33.78,2.62,1.4,4.23,1.02,5.8-1.36,9.21-5.07,10.51-10.76.82-3.61-.6-6.75-3.41-8.68-7.6-5.21-19.32-2.95-24.66,2.5-6.41,6.54-9.58,19.09-2.06,28.2,5.09,6.16,11.16,10.19,18.87,11.67,3.33.64,6.92,1.1,10.2.53,8.07-1.42,14.6-5.76,20.25-11.74,5.27-5.58,7.41-12.04,6.98-19.5-.41-7.13-3.06-13.49-7.04-19.33-8.03-11.75-19.03-18.35-33.38-19.14-5.37-.3-10.4,1.1-15.4,2.78-11.86,3.99-20.82,11.3-25.87,22.94-3.99,9.19-1.75,20.77,9.49,25.91,2.17.99,4.48,1.67,6.84,2.54h0Z"/>
  <path class="cls-1" d="M28.9,54.08c.69,4.3-2.6,8.11-7.36,8.65-2.25.26-4.48.16-5.92-1.86-.49-.69-.41-1.79-.59-2.71.9-.06,1.92-.43,2.69-.13,2.64,1.04,4.47.74,6.77-1.45,1.71-1.62,3.18-2.45,4.42-2.5h-.01Z"/>
  <path class="cls-1" d="M12.16,45.75c.02-2,.8-3.03,2.27-3,1.44.03,2.53,1.27,2.55,2.91.02,1.78-1.08,3.13-2.54,3.12-1.45,0-2.3-1.14-2.28-3.03Z"/>
  <path class="cls-1" d="M27.54,45.06c.03,1.55-1.03,2.74-2.43,2.74s-2.43-1.14-2.3-2.81c.09-1.1,0-2.52,1.73-2.61,1.55-.08,2.98,1.2,3.01,2.67h-.01Z"/>
</svg>