<?xml version="1.0" encoding="UTF-8"?>
<svg id="Calque_1" data-name="Calque 1" xmlns="http://www.w3.org/2000/svg" viewBox="0 0 105.25 114.13">
  <defs>
    <style>
      .cls-1 {
        stroke-width: 0px;
      }
    </style>
  </defs>
  <path class="cls-1" d="M78.52,56.78c-.16,12.2-9.83,24.41-20.55,26.8-7.27,1.62-16.11-2.15-20.71-8.96-5.38-7.96-5.35-16.4-2.08-25.11,2.17-5.77,5.68-10.37,11.23-13.25,3.6-1.87,7.39-2.76,11.28-1.25,3.5,1.35,6.89,3,10.25,4.66,2.89,1.43,5.01,3.73,6.57,6.54,2,3.59,3.87,7.23,3.99,10.58h.02ZM74.26,58.76c.08-4.27-1.47-6.92-2.86-9.61-1.07-2.07-2.32-4.13-4.45-5.21-3.69-1.86-7.49-3.51-11.26-5.22-.38-.17-.85-.17-1.28-.18-3.82-.08-7.08,1.39-9.87,3.83-3.24,2.83-4.87,6.67-6.13,10.65-2.18,6.91-1.76,13.6,2.71,19.53,3.85,5.11,9.05,7.75,15.61,6.84,3.3-.46,6.05-2.22,8.49-4.4,5.18-4.63,8.61-10.2,9.04-16.24h0Z"/>
  <path class="cls-1" d="M11.9,9.15c5.54,2.59,17.31,20.9,17.02,26.85-.89-.56-1.8-.84-2.26-1.46-4.01-5.49-7.95-11.02-11.89-16.57-1.86-2.61-2.42-5.66-2.88-8.82h.01Z"/>
  <path class="cls-1" d="M61.76,0c.29,1.66.77,2.99.7,4.29-.34,6.06-.77,12.11-1.34,18.15-.13,1.39-.75,2.81-1.42,4.06-.33.61-1.31,1.23-1.99,1.22-1.03-.02-1.28-1.04-1.16-1.98.27-2.1.68-4.18.85-6.29.28-3.46.35-6.93.61-10.39.25-3.25,1.01-6.34,3.75-9.06h0Z"/>
  <path class="cls-1" d="M80.73,114.13c-.96-1.13-2.11-2.14-2.83-3.4-2.87-5.07-5.68-10.18-8.36-15.36-.82-1.59-1.21-3.41-1.65-5.17-.1-.39.34-1.22.7-1.34.4-.14,1.02.27,1.49.52.23.12.4.42.54.67,3.15,5.3,6.34,10.59,9.42,15.93,1.17,2.02,1.88,4.23,1.42,6.64-.09.46-.19.91-.29,1.37-.15.05-.3.09-.45.14h0Z"/>
  <path class="cls-1" d="M82.43,46.28c-1.32-.18-1.9-1.12-1.16-2.15.46-.63,1.16-1.19,1.87-1.53,5.42-2.54,10.85-5.03,16.31-7.49.82-.37,1.77-.74,2.63-.66.72.06,1.71.62,1.99,1.23.23.51-.23,1.54-.68,2.1-.41.52-1.2.78-1.86,1.05-4.85,2.02-9.7,4.04-14.58,6-1.46.59-3.01.97-4.52,1.44h0Z"/>
  <path class="cls-1" d="M105.24,83.74c.04,1.51-.93,2.39-2.11,2.16-.68-.14-1.36-.49-1.94-.89-4.89-3.44-9.78-6.9-14.63-10.4-.84-.61-1.61-1.39-2.2-2.24-.29-.41-.32-1.34-.03-1.71.24-.31,1.17-.36,1.66-.16,1.07.42,2.1.99,3.05,1.64,5.11,3.47,10.2,6.97,15.27,10.5.47.32.76.9.94,1.11h0Z"/>
  <path class="cls-1" d="M20.93,66.32c-1.28-.59-2.47-.94-3.41-1.62-2.8-2.03-5.96-3.03-9.25-3.88-2.3-.6-4.5-1.67-6.68-2.66-.97-.44-1.81-1.25-1.54-2.5.07-.31.71-.79.98-.73,4.26.99,8.52,1.99,12.74,3.15,1.41.39,2.76,1.14,4.02,1.92,2.18,1.35,3.05,3.47,3.14,6.33h0Z"/>
  <path class="cls-1" d="M20.89,108.71c.02-2.3.61-3.94,1.88-5.27,1.83-1.92,3.79-3.71,5.61-5.65,1.92-2.04,3.72-4.18,5.6-6.25.48-.53.99-1.1,1.61-1.42.44-.23,1.23-.28,1.58-.03.31.22.41,1.05.26,1.5-.32.95-.78,1.88-1.33,2.71-3.14,4.68-7.01,8.72-11.21,12.44-.99.88-2.44,1.23-4,1.98h0Z"/>
</svg>