<?xml version="1.0" encoding="UTF-8"?>
<svg id="Calque_1" data-name="Calque 1" xmlns="http://www.w3.org/2000/svg" viewBox="0 0 146.36 29.76">
  <defs>
    <style>
      .cls-1 {
        stroke-width: 0px;
      }
    </style>
  </defs>
  <path class="cls-1" d="M59.87,15.1c0-6.95,4.9-11.91,12.02-13.05,5.48-.88,9.05,1.7,11.85,5.59,6.61,9.16,1.39,17.96-5.87,21.15-4.59,2.02-9.01.71-12.66-2.35-3.42-2.86-5.3-6.75-5.35-11.34h.01Z"/>
  <path class="cls-1" d="M13.97,29.61c-7.04-.43-11.95-4.9-13.58-11.85C-.9,12.23,1.02,7.66,5.51,4.2c2.04-1.57,4.51-1.89,6.93-2.35,5.92-1.11,9.53,2.37,12.25,6.75,5.41,8.73.27,16.73-6.4,19.88-1.32.62-2.87.76-4.32,1.13ZM13.95,26.98c4.07-.24,6.84-2.53,8.89-5.81,1.39-2.22,1.94-4.68,1.3-7.28-1.01-4.09-3.43-7.08-7.13-9.09-1.64-.89-3.52-1.03-5.18-.75C4.45,5.31,1.19,12.31,2.94,17.73c.56,1.73,1.5,3.38,2.53,4.89,2,2.94,5.04,4.05,8.48,4.36Z"/>
  <path class="cls-1" d="M119.51,13.05c-.19-5.42,4.12-11.36,9.59-12.25,1.68-.27,3.36-.67,5.05-.79.91-.07,1.94.13,2.77.51,5.14,2.39,8.4,6.42,9.27,11.99.8,5.1-1.43,9.18-5.34,12.41-2.99,2.46-6.34,3.4-10.15,2.51-6.61-1.55-11.21-7.46-11.18-14.38h0ZM121.96,14.2c.05,2.76,1.68,6.08,4.6,8.53s6.46,3.51,10.16,1.83c3.61-1.64,6.02-4.49,6.89-8.43.23-1.05.3-2.21.1-3.25-.76-3.96-2.96-6.96-6.31-9.23-1.84-1.25-3.92-1.42-5.89-1.3-5.15.32-9.5,5.36-9.55,11.85h0Z"/>
</svg>